<svg width="52" height="40" viewBox="0 0 52 40" fill="none" xmlns="http://www.w3.org/2000/svg">
<path d="M39.9573 11.969L36.3396 15.5985C36.837 16.8896 37.1102 18.2933 37.1102 19.7603C37.1102 26.1511 31.9465 31.33 25.5781 31.33C19.2096 31.33 14.046 26.1495 14.046 19.7603C14.046 18.3297 14.3065 16.9609 14.7787 15.6967L11.1515 12.0577C9.93088 14.3548 9.23608 16.9752 9.23608 19.7603C9.23608 28.8158 16.5536 36.1556 25.5781 36.1556C34.6026 36.1556 41.9201 28.8142 41.9201 19.7603C41.9201 16.9387 41.2079 14.2867 39.9573 11.969Z" fill="#F37021"/>
<path d="M25.5781 8.19054C26.9298 8.19054 28.2278 8.42659 29.4326 8.85592L33.0803 5.19632C30.8333 4.02873 28.2831 3.36493 25.5781 3.36493C22.8731 3.36493 20.2439 4.04774 17.9716 5.25018L21.6051 8.89552C22.8431 8.43926 24.1822 8.19054 25.5781 8.19054Z" fill="#F37021"/>
<path d="M45.2946 3.41563C44.2697 2.17358 43.1312 1.02976 41.8948 0L38.4555 3.45048L25.5244 16.4238L12.6406 3.49801L9.20293 0.0491118C7.96966 1.08204 6.83272 2.22903 5.81262 3.47425C2.18072 7.90537 0 13.577 0 19.7618C0 27.653 3.55137 34.7124 9.13818 39.4191L12.5743 35.9718C7.85754 32.157 4.83833 26.3143 4.83833 19.7618C4.83833 14.9188 6.49005 10.4623 9.25504 6.92631L25.5133 23.2377L25.526 23.2488L41.8553 6.86611C44.6487 10.4116 46.3194 14.8903 46.3194 19.7603C46.3194 26.3681 43.2481 32.2568 38.4603 36.0685L41.8995 39.5189C47.5543 34.8122 51.1577 27.7084 51.1577 19.7603C51.1577 13.5484 48.9565 7.85468 45.2962 3.41563H45.2946Z" fill="#288DCC"/>
</svg>
