<svg width="143" height="112" viewBox="0 0 143 112" fill="none" xmlns="http://www.w3.org/2000/svg">
<path d="M93.3747 28.3779L87.8712 33.8712C88.6279 35.8254 89.0435 37.9498 89.0435 40.1702C89.0435 49.8428 81.1882 57.6811 71.5 57.6811C61.8118 57.6811 53.9565 49.8404 53.9565 40.1702C53.9565 38.005 54.3528 35.9333 55.0711 34.0199L49.5532 28.5122C47.6963 31.989 46.6393 35.9549 46.6393 40.1702C46.6393 53.8759 57.7712 64.9847 71.5 64.9847C85.2287 64.9847 96.3607 53.8735 96.3607 40.1702C96.3607 35.8997 95.2773 31.8859 93.3747 28.3779Z" fill="#F37021"/>
<path d="M71.5 22.6591C73.5563 22.6591 75.5309 23.0164 77.3638 23.6662L82.913 18.1273C79.4946 16.3601 75.615 15.3555 71.5 15.3555C67.385 15.3555 63.3852 16.3889 59.9284 18.2088L65.456 23.7261C67.3393 23.0355 69.3764 22.6591 71.5 22.6591Z" fill="#F37021"/>
<path d="M101.494 15.4323C99.9352 13.5524 98.2032 11.8212 96.3222 10.2627L91.0902 15.485L71.4183 35.1204L51.8185 15.557L46.5889 10.337C44.7127 11.9004 42.9831 13.6364 41.4313 15.521C35.9061 22.2276 32.5887 30.8116 32.5887 40.1725C32.5887 52.1158 37.9913 62.8003 46.4904 69.9241L51.7176 64.7065C44.5422 58.9327 39.9491 50.0897 39.9491 40.1725C39.9491 32.8425 42.4618 26.0976 46.6681 20.7458L71.4015 45.4332L71.4207 45.45L96.2622 20.6546C100.512 26.0209 103.053 32.7994 103.053 40.1701C103.053 50.1712 98.3809 59.0838 91.0974 64.8528L96.3294 70.0751C104.932 62.9514 110.414 52.1997 110.414 40.1701C110.414 30.7685 107.065 22.1509 101.497 15.4323H101.494Z" fill="#288DCC"/>
<path d="M7.13943 92.0553C7.13943 89.3482 8.06429 87.0583 9.91641 85.1832C11.7685 83.3082 14.0507 82.373 16.7628 82.373C19.4749 82.373 21.7354 83.301 23.5947 85.1593C25.454 87.0151 26.3861 89.3146 26.3861 92.0577C26.3861 94.8007 25.4637 97.0978 23.6211 98.956C21.7786 100.812 19.4917 101.742 16.7628 101.742C14.0338 101.742 11.7469 100.814 9.9044 98.956C8.06189 97.1002 7.13943 94.8007 7.13943 92.0577V92.0553ZM11.6893 86.7849C10.3416 88.1829 9.66898 89.938 9.66898 92.0553C9.66898 94.1725 10.3416 95.9301 11.6893 97.3256C13.0369 98.7235 14.7281 99.4212 16.7604 99.4212C18.7927 99.4212 20.4814 98.7235 21.8195 97.3256C23.1575 95.9301 23.8277 94.1725 23.8277 92.0553C23.8277 89.938 23.1575 88.1805 21.8195 86.7849C20.4814 85.3894 18.7951 84.6893 16.7604 84.6893C14.7257 84.6893 13.0345 85.387 11.6893 86.7849Z" fill="#F37021"/>
<path d="M41.0734 92.7578L32.5719 82.373H32.5454V101.426H34.9717V88.8806L35.4666 89.4777L41.0734 96.2729L46.7066 89.4777L47.2015 88.8806V101.426H49.6277V82.373H49.6013L41.0734 92.7578Z" fill="#288DCC"/>
<path d="M61.8046 82.373L53.147 101.426H55.8062L57.6319 97.2608H66.0037L67.8558 101.426H70.5151L61.8575 82.373H61.8046ZM58.5448 95.2035C59.866 92.2375 60.9614 89.6503 61.831 87.4467C62.6478 89.5808 63.7336 92.1679 65.0909 95.2035H58.5448Z" fill="#288DCC"/>
<path d="M85.5987 91.7937C86.3386 90.873 86.7061 89.746 86.7061 88.4105C86.7061 86.6241 86.1248 85.2214 84.9597 84.2072C83.7946 83.1929 82.1779 82.6846 80.1096 82.6846H74.0344V101.426H76.5375V94.086H80.4483L84.3327 101.426H87.1241L82.8746 93.6688C83.9532 93.3403 84.8612 92.7145 85.5987 91.7937ZM80.2393 92.0287H76.5375V84.7922H80.0327C81.3371 84.7922 82.3581 85.1135 83.098 85.7561C83.8355 86.3987 84.2054 87.2835 84.2054 88.4105C84.2054 89.5374 83.8547 90.4246 83.1484 91.0648C82.4446 91.7074 81.4741 92.0287 80.2417 92.0287H80.2393Z" fill="#288DCC"/>
<path d="M94.1915 82.6846H91.6884V101.426H94.1915V82.6846Z" fill="#288DCC"/>
<path d="M112.47 95.6471L111.872 94.9973L100.214 82.373H100.187V101.426H102.691V88.4634L103.291 89.1132L114.947 101.737H114.973V82.6848H112.47V95.6471Z" fill="#288DCC"/>
<path d="M127.203 82.373H127.15L118.492 101.426H121.152L122.977 97.2608H131.349L133.201 101.426H135.861L127.203 82.373ZM123.893 95.2035C125.214 92.2375 126.309 89.6503 127.179 87.4467C127.996 89.5808 129.081 92.1679 130.439 95.2035H123.893Z" fill="#288DCC"/>
</svg>
