<svg width="32" height="32" viewBox="0 0 32 32" fill="none" xmlns="http://www.w3.org/2000/svg">
<path d="M29.1625 1.20752H2.84C1.9384 1.20752 1.2075 1.93841 1.2075 2.84002V29.1625C1.2075 30.0641 1.9384 30.795 2.84 30.795H29.1625C30.0641 30.795 30.795 30.0641 30.795 29.1625V2.84002C30.795 1.93841 30.0641 1.20752 29.1625 1.20752Z" fill="#3D5A98"/>
<path d="M21.62 30.7927V19.3352H25.465L26.04 14.8702H21.62V12.0202C21.62 10.7277 21.98 9.84522 23.8325 9.84522H26.1975V5.84522C25.0523 5.72608 23.9014 5.66933 22.75 5.67522C19.345 5.67522 17 7.75022 17 11.5777V14.8702H13.155V19.3352H17V30.7927H21.62Z" fill="white"/>
</svg>
